<?xml version="1.0" encoding="UTF-8"?>
<!DOCTYPE svg PUBLIC "-//W3C//DTD SVG 1.1//EN" "http://www.w3.org/Graphics/SVG/1.1/DTD/svg11.dtd">
<svg xmlns="http://www.w3.org/2000/svg" version="1.1" width="2797px" height="1195px" style="shape-rendering:geometricPrecision; text-rendering:geometricPrecision; image-rendering:optimizeQuality; fill-rule:evenodd; clip-rule:evenodd" xmlns:xlink="http://www.w3.org/1999/xlink">
<g><path style="opacity:0.992" fill="#fefffe" d="M 147.5,-0.5 C 201.833,-0.5 256.167,-0.5 310.5,-0.5C 318.302,1.79463 323.802,6.79463 327,14.5C 334.63,49.5162 342.797,84.3495 351.5,119C 371.121,123.861 390.288,130.028 409,137.5C 435.466,114.036 461.633,90.2024 487.5,66C 500.166,60.2528 511.833,61.9195 522.5,71C 562.888,100.388 603.555,129.388 644.5,158C 651.092,164.886 653.259,173.052 651,182.5C 637.609,214.283 623.942,245.95 610,277.5C 609.333,278.5 609.333,279.5 610,280.5C 622.798,295.796 634.631,311.796 645.5,328.5C 680.695,325.905 715.862,322.238 751,317.5C 761.347,318.195 768.68,323.195 773,332.5C 789,380.5 805,428.5 821,476.5C 823.245,483.351 823.912,490.351 823,497.5C 822.152,500.698 820.652,503.531 818.5,506C 786.917,524.708 755.417,543.541 724,562.5C 724.261,583.14 724.595,603.807 725,624.5C 755.085,641.793 785.252,658.96 815.5,676C 824.054,683.672 826.887,693.172 824,704.5C 808.396,754.645 792.396,804.645 776,854.5C 771.473,863.192 764.307,867.526 754.5,867.5C 720.108,864.525 685.774,861.192 651.5,857.5C 640.079,874.661 627.912,891.327 615,907.5C 628.389,938.957 642.389,970.291 657,1001.5C 659.515,1014.62 655.681,1025.45 645.5,1034C 606.833,1062.67 568.167,1091.33 529.5,1120C 518.756,1127.43 507.423,1128.43 495.5,1123C 469.322,1100.15 443.155,1077.32 417,1054.5C 397.845,1061.94 378.345,1068.27 358.5,1073.5C 351.193,1108.87 343.693,1144.2 336,1179.5C 331.133,1187.34 324.3,1192.34 315.5,1194.5C 259.5,1194.5 203.5,1194.5 147.5,1194.5C 137.833,1192.73 130.666,1187.4 126,1178.5C 118.079,1144.9 110.412,1111.23 103,1077.5C 80.9811,1071.94 59.4811,1064.77 38.5,1056C 30.0793,1051.9 21.9126,1047.4 14,1042.5C 13.167,1024.49 13.3337,1006.49 14.5,988.5C 39.5828,1001.92 65.9162,1012.08 93.5,1019C 115.954,1023.66 138.454,1024.16 161,1020.5C 182.631,1030.79 205.464,1035.79 229.5,1035.5C 277.135,1034.45 321.468,1021.95 362.5,998C 386.013,980.464 402.846,957.964 413,930.5C 415.913,919.567 417.413,908.567 417.5,897.5C 456.105,899.398 482.605,882.398 497,846.5C 506.06,821.11 508.394,795.11 504,768.5C 501.977,759.087 499.977,749.753 498,740.5C 522.294,720.465 550.127,712.965 581.5,718C 594.408,720.227 607.075,723.394 619.5,727.5C 657.647,612.287 647.147,501.621 588,395.5C 518.978,281.018 418.145,212.851 285.5,191C 236.745,184.629 188.412,186.962 140.5,198C 243.994,204.985 336.661,239.818 418.5,302.5C 434.785,331.848 444.285,363.181 447,396.5C 388.529,358.686 325.696,330.186 258.5,311C 204.962,297.685 150.629,289.685 95.5,287C 69.5213,285.45 43.5213,284.45 17.5,284C 16.0692,283.535 14.9025,282.701 14,281.5C 12.3545,237.546 12.0212,193.546 13,149.5C 23.9099,144.418 35.0766,139.918 46.5,136C 65.3532,129.604 84.1866,123.437 103,117.5C 110.667,83.5 118.333,49.5 126,15.5C 130.23,6.14272 137.397,0.809382 147.5,-0.5 Z"/></g>
<g><path style="opacity:0.97" fill="#fefffe" d="M 16.5,298.5 C 76.6831,299.099 136.35,304.932 195.5,316C 216.161,320.415 236.495,325.915 256.5,332.5C 246.923,342.337 239.923,353.671 235.5,366.5C 186.65,350.288 136.65,339.121 85.5,333C 61.827,330.266 38.1603,327.6 14.5,325C 11.2338,317.728 10.7338,310.228 13,302.5C 13.6897,300.65 14.8564,299.316 16.5,298.5 Z"/></g>
<g><path style="opacity:0.982" fill="#fefffe" d="M 443.5,325.5 C 486.411,336.197 523.578,356.864 555,387.5C 591.059,426.016 604.726,471.35 596,523.5C 591.696,540.622 582.529,554.455 568.5,565C 565.056,567.056 561.389,568.556 557.5,569.5C 551.515,568.246 550.015,564.913 553,559.5C 561.914,549.852 564.914,538.519 562,525.5C 560.672,519.178 558.005,513.511 554,508.5C 539.986,493.494 523.486,481.994 504.5,474C 488.418,467.14 472.085,460.973 455.5,455.5C 463.84,422.062 463.34,388.728 454,355.5C 450.788,345.364 447.288,335.364 443.5,325.5 Z"/></g>
<g><path style="opacity:0.972" fill="#fefffe" d="M 15.5,337.5 C 68.8829,343.531 121.883,352.031 174.5,363C 185.92,365.688 197.253,368.688 208.5,372C 209.097,373.062 209.43,374.228 209.5,375.5C 206.835,387.847 206.835,400.18 209.5,412.5C 145.65,394.696 80.983,380.53 15.5,370C 10.2631,359.097 10.2631,348.264 15.5,337.5 Z"/></g>
<g><path style="opacity:0.968" fill="#fefffe" d="M 289.5,339.5 C 312.838,337.746 328.671,347.746 337,369.5C 341.891,395.898 331.725,413.398 306.5,422C 275.931,425.096 258.598,411.429 254.5,381C 256.296,358.713 267.963,344.88 289.5,339.5 Z M 311.5,358.5 C 323.726,360.619 327.226,367.286 322,378.5C 316,383.833 310,383.833 304,378.5C 298.975,368.899 301.475,362.232 311.5,358.5 Z"/></g>
<g><path style="opacity:0.975" fill="#fefffe" d="M 357.5,369.5 C 387.743,381.786 417.41,395.453 446.5,410.5C 447.489,418.167 447.322,425.833 446,433.5C 443.011,448.631 439.511,463.631 435.5,478.5C 386.932,462.044 337.265,457.878 286.5,466C 280.178,466.996 274.011,468.496 268,470.5C 232.145,449.14 217.812,418.14 225,377.5C 228.243,378.269 231.41,379.269 234.5,380.5C 238.554,410.716 255.221,429.882 284.5,438C 319.844,442.251 343.678,427.751 356,394.5C 358.38,386.258 358.88,377.925 357.5,369.5 Z"/></g>
<g><path style="opacity:0.86" fill="#fefffe" d="M 1934.5,380.5 C 1937.72,381.882 1940.22,384.215 1942,387.5C 1942.42,389.788 1941.75,391.788 1940,393.5C 1937.72,395.907 1935.55,398.407 1933.5,401C 1928.83,401.667 1924.17,401.667 1919.5,401C 1924.39,394.048 1929.39,387.215 1934.5,380.5 Z"/></g>
<g><path style="opacity:0.978" fill="#fefffe" d="M 15.5,387.5 C 81.6182,396.757 146.952,409.924 211.5,427C 212.416,427.374 213.25,427.874 214,428.5C 221.256,446.691 231.756,462.691 245.5,476.5C 243.941,478.131 241.941,478.964 239.5,479C 216.14,480.372 193.14,478.039 170.5,472C 118.774,459.11 67.6073,444.277 17,427.5C 14.6215,425.41 13.2882,422.743 13,419.5C 11.082,410.156 11.082,400.823 13,391.5C 13.6622,390.016 14.4955,388.683 15.5,387.5 Z"/></g>
<g><path style="opacity:0.963" fill="#fefffe" d="M 1519.5,410.5 C 1533.97,409.746 1546.64,414.079 1557.5,423.5C 1558.67,437.488 1558.83,451.488 1558,465.5C 1552.11,456.466 1544.27,449.633 1534.5,445C 1520.54,440.658 1509.71,444.824 1502,457.5C 1492.45,476.343 1492.11,495.343 1501,514.5C 1508.12,527.641 1518.95,532.475 1533.5,529C 1543.1,525.617 1551.27,520.117 1558,512.5C 1558.67,525.167 1558.67,537.833 1558,550.5C 1528.47,571.177 1502.8,567.177 1481,538.5C 1466.95,513.265 1463.61,486.599 1471,458.5C 1477.9,432.767 1494.06,416.767 1519.5,410.5 Z"/></g>
<g><path style="opacity:0.963" fill="#fefffe" d="M 2051.5,410.5 C 2066.57,409.636 2079.91,413.969 2091.5,423.5C 2092.32,436.216 2091.65,448.883 2089.5,461.5C 2083.36,452.848 2075.36,446.681 2065.5,443C 2050.02,440.657 2038.52,446.49 2031,460.5C 2022.89,480.314 2023.89,499.648 2034,518.5C 2043.84,531.209 2056.17,534.542 2071,528.5C 2071.5,521.842 2071.67,515.175 2071.5,508.5C 2064.5,508.5 2057.5,508.5 2050.5,508.5C 2050.5,498.5 2050.5,488.5 2050.5,478.5C 2066.5,478.5 2082.5,478.5 2098.5,478.5C 2098.83,502.176 2098.5,525.843 2097.5,549.5C 2076.52,564.868 2054.19,567.368 2030.5,557C 2011.95,544.079 2001.45,526.246 1999,503.5C 1995.25,479.241 1999.59,456.574 2012,435.5C 2021.99,421.935 2035.15,413.602 2051.5,410.5 Z"/></g>
<g><path style="opacity:0.96" fill="#fefffe" d="M 2213.5,410.5 C 2228.3,409.931 2241.13,414.598 2252,424.5C 2252.67,438.167 2252.67,451.833 2252,465.5C 2245.7,456.86 2237.86,450.027 2228.5,445C 2210.83,440.757 2198.66,447.257 2192,464.5C 2187.77,478.401 2187.43,492.401 2191,506.5C 2199.55,529.198 2214.72,535.365 2236.5,525C 2241.94,521.398 2246.94,517.232 2251.5,512.5C 2252.67,524.82 2252.83,537.153 2252,549.5C 2236.67,563.5 2219.17,567 2199.5,560C 2182.16,550.652 2170.66,536.485 2165,517.5C 2156.62,487.325 2160.62,458.992 2177,432.5C 2186.21,420.151 2198.37,412.818 2213.5,410.5 Z"/></g>
<g><path style="opacity:0.969" fill="#fefffe" d="M 1729.5,411.5 C 1748.67,408.943 1764.51,414.943 1777,429.5C 1793.98,454.058 1799.31,481.058 1793,510.5C 1788.78,532.682 1776.95,549.182 1757.5,560C 1733.59,567.696 1714.09,561.529 1699,541.5C 1684.54,518.44 1679.88,493.44 1685,466.5C 1688.45,448.424 1696.95,433.257 1710.5,421C 1716.38,416.727 1722.71,413.561 1729.5,411.5 Z M 1733.5,444.5 C 1748.11,443.257 1757.94,449.59 1763,463.5C 1769.45,481.12 1768.79,498.453 1761,515.5C 1748.9,533.66 1735.23,534.993 1720,519.5C 1707.89,498.706 1707.56,477.706 1719,456.5C 1722.54,450.78 1727.37,446.78 1733.5,444.5 Z"/></g>
<g><path style="opacity:0.969" fill="#fefffe" d="M 1921.5,411.5 C 1948.63,409.318 1967.8,420.651 1979,445.5C 1991.43,476.463 1990.09,506.797 1975,536.5C 1958.4,562.7 1935.9,569.533 1907.5,557C 1892.94,546.749 1883.44,532.916 1879,515.5C 1871.89,488.29 1874.89,462.29 1888,437.5C 1895.89,424.419 1907.06,415.753 1921.5,411.5 Z M 1925.5,444.5 C 1938.73,443.2 1948.23,448.534 1954,460.5C 1961.84,479.805 1961.18,498.805 1952,517.5C 1940.04,533.404 1927.04,534.404 1913,520.5C 1903.1,503.931 1900.77,486.265 1906,467.5C 1909.27,456.877 1915.77,449.21 1925.5,444.5 Z"/></g>
<g><path style="opacity:0.969" fill="#fefffe" d="M 2305.5,411.5 C 2330.66,409.326 2349.16,419.326 2361,441.5C 2375.25,472.65 2374.91,503.65 2360,534.5C 2341.1,565.075 2316.27,571.242 2285.5,553C 2267.58,534.968 2258.58,513.135 2258.5,487.5C 2258.49,463.719 2266.15,442.885 2281.5,425C 2288.54,418.652 2296.54,414.152 2305.5,411.5 Z M 2309.5,444.5 C 2319.65,442.99 2327.81,446.323 2334,454.5C 2346.28,475.649 2346.61,496.983 2335,518.5C 2320.63,534.977 2306.96,534.311 2294,516.5C 2283.76,496.328 2284.09,476.328 2295,456.5C 2298.54,450.78 2303.37,446.78 2309.5,444.5 Z"/></g>
<g><path style="opacity:0.97" fill="#fefffe" d="M 1274.5,415.5 C 1306.83,415.5 1339.17,415.5 1371.5,415.5C 1371.5,425.833 1371.5,436.167 1371.5,446.5C 1359.83,446.5 1348.17,446.5 1336.5,446.5C 1336.5,483.833 1336.5,521.167 1336.5,558.5C 1327.5,558.5 1318.5,558.5 1309.5,558.5C 1309.5,521.167 1309.5,483.833 1309.5,446.5C 1297.83,446.5 1286.17,446.5 1274.5,446.5C 1274.5,436.167 1274.5,425.833 1274.5,415.5 Z"/></g>
<g><path style="opacity:0.97" fill="#fefffe" d="M 1386.5,415.5 C 1409.17,415.5 1431.83,415.5 1454.5,415.5C 1454.5,425.833 1454.5,436.167 1454.5,446.5C 1440.5,446.5 1426.5,446.5 1412.5,446.5C 1412.5,454.5 1412.5,462.5 1412.5,470.5C 1420.83,470.5 1429.17,470.5 1437.5,470.5C 1437.5,480.5 1437.5,490.5 1437.5,500.5C 1429.17,500.5 1420.83,500.5 1412.5,500.5C 1412.5,509.5 1412.5,518.5 1412.5,527.5C 1426.83,527.5 1441.17,527.5 1455.5,527.5C 1455.5,537.833 1455.5,548.167 1455.5,558.5C 1432.5,558.5 1409.5,558.5 1386.5,558.5C 1386.5,510.833 1386.5,463.167 1386.5,415.5 Z"/></g>
<g><path style="opacity:0.971" fill="#fefffe" d="M 1574.5,415.5 C 1578.6,414.769 1582.1,415.769 1585,418.5C 1605,443.167 1625,467.833 1645,492.5C 1645.5,466.835 1645.67,441.169 1645.5,415.5C 1653.83,415.5 1662.17,415.5 1670.5,415.5C 1670.5,463.167 1670.5,510.833 1670.5,558.5C 1665.14,559.655 1660.98,557.988 1658,553.5C 1639.38,529.877 1620.38,506.543 1601,483.5C 1600.5,508.498 1600.33,533.498 1600.5,558.5C 1592.17,558.5 1583.83,558.5 1575.5,558.5C 1575.82,510.791 1575.49,463.124 1574.5,415.5 Z"/></g>
<g><path style="opacity:0.958" fill="#fefffe" d="M 1807.5,415.5 C 1816.83,415.5 1826.17,415.5 1835.5,415.5C 1835.5,452.833 1835.5,490.167 1835.5,527.5C 1849.5,527.5 1863.5,527.5 1877.5,527.5C 1877.5,537.833 1877.5,548.167 1877.5,558.5C 1854.17,558.5 1830.83,558.5 1807.5,558.5C 1807.5,510.833 1807.5,463.167 1807.5,415.5 Z"/></g>
<g><path style="opacity:0.978" fill="#fefffe" d="M 2119.5,415.5 C 2128.5,415.5 2137.5,415.5 2146.5,415.5C 2146.5,463.167 2146.5,510.833 2146.5,558.5C 2137.5,558.5 2128.5,558.5 2119.5,558.5C 2119.5,510.833 2119.5,463.167 2119.5,415.5 Z"/></g>
<g><path style="opacity:0.977" fill="#fefffe" d="M 17.5,446.5 C 19.5273,446.338 21.5273,446.505 23.5,447C 85.7345,466.559 149.068,481.392 213.5,491.5C 202.199,498.812 191.199,506.478 180.5,514.5C 176.197,513.895 171.864,513.562 167.5,513.5C 150.505,514.15 133.505,514.65 116.5,515C 83.4668,516.869 50.4668,518.869 17.5,521C 14.4445,514.188 12.6112,507.021 12,499.5C 10.0909,485.151 10.0909,470.818 12,456.5C 12.5435,452.41 14.3768,449.076 17.5,446.5 Z"/></g>
<g><path style="opacity:0.981" fill="#fefffe" d="M 451.5,469.5 C 462.921,473.029 474.255,476.863 485.5,481C 488.857,483.693 490.191,487.193 489.5,491.5C 489.122,503.14 485.122,513.306 477.5,522C 474.125,523.466 470.625,523.632 467,522.5C 460.187,522.323 454.354,524.49 449.5,529C 458.579,547.992 466.412,567.492 473,587.5C 476.448,598.479 476.781,609.479 474,620.5C 472.321,624.77 469.155,627.27 464.5,628C 455.837,628.976 447.17,629.809 438.5,630.5C 438.341,635.111 437.675,639.611 436.5,644C 438.227,645.389 439.561,647.056 440.5,649C 437.809,655.187 433.143,659.02 426.5,660.5C 429.3,665.147 430.133,670.147 429,675.5C 423.392,678.708 417.559,681.541 411.5,684C 410.553,686.882 408.553,688.048 405.5,687.5C 361.968,678.978 339.302,652.478 337.5,608C 338.567,573.687 353.067,546.854 381,527.5C 389.06,529.971 396.894,532.971 404.5,536.5C 399.221,539.394 393.555,541.227 387.5,542C 396.886,545.221 406.386,548.055 416,550.5C 418.425,549.739 419.758,548.072 420,545.5C 420.175,542.843 420.008,540.176 419.5,537.5C 425.051,537.785 429.717,535.952 433.5,532C 432,531.5 430.5,531 429,530.5C 424.208,531.586 419.375,531.753 414.5,531C 406.645,528.911 398.811,526.744 391,524.5C 389.743,524.15 389.409,523.483 390,522.5C 405.419,510.763 422.919,505.096 442.5,505.5C 445.186,493.423 448.186,481.423 451.5,469.5 Z"/></g>
<g><path style="opacity:0.967" fill="#fefffe" d="M 316.5,475.5 C 349.038,474.208 381.038,477.708 412.5,486C 417.988,487.607 423.322,489.607 428.5,492C 385.836,494.399 353.336,513.566 331,549.5C 328.472,554.751 326.139,560.084 324,565.5C 319.572,538.405 303.739,522.572 276.5,518C 269.527,516.813 262.527,515.813 255.5,515C 236.348,513.634 217.348,513.134 198.5,513.5C 214.881,500.643 233.214,491.476 253.5,486C 274.28,480.314 295.28,476.814 316.5,475.5 Z"/></g>
<g><path style="opacity:0.982" fill="#fefffe" d="M 116.5,525.5 C 148.168,525.333 179.835,525.5 211.5,526C 226.55,526.375 241.55,527.375 256.5,529C 235.897,544.915 231.063,564.749 242,588.5C 244.167,591.333 246.333,594.167 248.5,597C 171.921,581.402 94.5877,574.402 16.5,576C 14.0622,573.705 12.5622,570.872 12,567.5C 9.97062,558.424 10.304,549.424 13,540.5C 13.7922,538.413 14.9588,536.579 16.5,535C 25.6938,532.94 35.0271,531.607 44.5,531C 68.6305,528.827 92.6305,526.994 116.5,525.5 Z"/></g>
<g><path style="opacity:0.944" fill="#fefffe" d="M 271.5,536.5 C 298.614,534.781 311.114,547.447 309,574.5C 300.998,594.081 286.831,600.581 266.5,594C 251.271,585.358 246.104,572.525 251,555.5C 254.841,545.822 261.674,539.488 271.5,536.5 Z M 277.5,551.5 C 287.226,551.893 292.893,556.893 294.5,566.5C 291.044,579.728 283.044,583.561 270.5,578C 264.218,571.741 263.385,564.908 268,557.5C 270.855,554.773 274.022,552.773 277.5,551.5 Z"/></g>
<g><path style="opacity:0.894" fill="#fefffe" d="M 271.5,560.5 C 276.844,560.334 282.177,560.501 287.5,561C 289.72,564.101 290.053,567.435 288.5,571C 282.509,571.499 276.509,571.666 270.5,571.5C 270.244,567.731 270.577,564.064 271.5,560.5 Z"/></g>
<g><path style="opacity:0.923" fill="#fefffe" d="M 318.5,585.5 C 317.294,614.384 325.46,640.384 343,663.5C 343.494,665.134 343.66,666.801 343.5,668.5C 340.206,668.741 337.206,667.908 334.5,666C 316.165,650.008 302.498,630.675 293.5,608C 304.758,603.711 313.091,596.211 318.5,585.5 Z"/></g>
<g><path style="opacity:0.969" fill="#fefffe" d="M 45.5,588.5 C 82.6384,587.774 119.638,589.607 156.5,594C 111.131,615.179 67.4645,639.179 25.5,666C 22.2976,667.483 18.9643,667.817 15.5,667C 14.3333,666.5 13.5,665.667 13,664.5C 12.3333,642.167 12.3333,619.833 13,597.5C 13.3459,595.152 14.5125,593.319 16.5,592C 26.2641,590.457 35.9308,589.29 45.5,588.5 Z"/></g>
<g><path style="opacity:0.977" fill="#fefffe" d="M 164.5,594.5 C 170.927,594.928 177.26,595.928 183.5,597.5C 144.864,640.459 110.364,686.459 80,735.5C 60.9586,766.417 41.7919,797.251 22.5,828C 20.8333,828.667 19.1667,828.667 17.5,828C 13.2093,822.918 10.3759,817.084 9,810.5C 0.842674,776.543 0.50934,742.543 8,708.5C 11.3615,696.926 18.1949,688.093 28.5,682C 73.3884,652.061 118.722,622.894 164.5,594.5 Z"/></g>
<g><path style="opacity:0.987" fill="#fefffe" d="M -0.5,933.5 C -0.5,932.5 -0.5,931.5 -0.5,930.5C 43.9791,830.159 98.1458,735.826 162,647.5C 173.683,631.472 185.85,615.805 198.5,600.5C 205.728,599.648 212.728,600.648 219.5,603.5C 182.576,692.533 160.743,785.2 154,881.5C 151.205,916.78 149.539,952.113 149,987.5C 114.443,991.55 80.6093,988.05 47.5,977C 25.2336,969.226 9.23357,954.726 -0.5,933.5 Z"/></g>
<g><path style="opacity:0.99" fill="#fefffe" d="M 231.5,605.5 C 242.21,607.343 252.877,609.51 263.5,612C 263.957,612.414 264.291,612.914 264.5,613.5C 258.047,668.406 263.547,722.073 281,774.5C 301.68,831.006 338.514,873.339 391.5,901.5C 389.467,932.392 375.8,956.892 350.5,975C 324.993,991.614 296.993,1001.28 266.5,1004C 241.052,1006.45 215.719,1005.61 190.5,1001.5C 183.236,911.572 185.736,821.905 198,732.5C 203.71,688.656 214.877,646.323 231.5,605.5 Z"/></g>
<g><path style="opacity:0.88" fill="#fefffe" d="M 2270.5,612.5 C 2273.85,614.863 2276.52,617.863 2278.5,621.5C 2276.71,623.576 2275.05,625.743 2273.5,628C 2268.47,628.829 2263.47,628.662 2258.5,627.5C 2262.52,622.481 2266.52,617.481 2270.5,612.5 Z"/></g>
<g><path style="opacity:0.982" fill="#fefffe" d="M 269.5,613.5 C 271.5,613.5 273.5,613.5 275.5,613.5C 279.967,641.093 290.467,666.093 307,688.5C 328.956,717.887 356.789,739.72 390.5,754C 421.183,765.012 451.349,763.845 481,750.5C 481.772,750.645 482.439,750.978 483,751.5C 487.035,760.203 488.868,769.37 488.5,779C 487.584,810.086 477.751,837.919 459,862.5C 451.791,871.552 442.624,877.552 431.5,880.5C 390.917,869.629 357.75,847.629 332,814.5C 287.165,755.151 266.332,688.151 269.5,613.5 Z"/></g>
<g><path style="opacity:0.958" fill="#fefffe" d="M 281.5,614.5 C 284.898,614.18 288.232,614.513 291.5,615.5C 304.243,650.741 327.576,676.241 361.5,692C 377.735,697.28 394.402,699.613 411.5,699C 417.221,703.721 423.221,708.054 429.5,712C 442.015,716.92 455.015,719.587 468.5,720C 469.535,721.507 469.368,723.007 468,724.5C 445.716,742.914 420.549,748.081 392.5,740C 358.451,728.284 330.951,707.784 310,678.5C 295.338,659.505 285.838,638.172 281.5,614.5 Z"/></g>
<g><path style="opacity:0.963" fill="#fefffe" d="M 1208.5,630.5 C 1224.9,628.692 1239.4,633.026 1252,643.5C 1252.83,656.846 1252.67,670.179 1251.5,683.5C 1246.68,677.843 1241.34,672.677 1235.5,668C 1213.84,657.221 1198.34,663.054 1189,685.5C 1183.43,702.95 1185.1,719.616 1194,735.5C 1202.21,746.86 1213.05,750.694 1226.5,747C 1236.11,743.863 1244.44,738.697 1251.5,731.5C 1252.83,743.833 1252.83,756.167 1251.5,768.5C 1222.36,788.549 1196.19,785.216 1173,758.5C 1158.71,736.468 1154.04,712.468 1159,686.5C 1162.43,667.464 1171.59,651.964 1186.5,640C 1193.33,635.411 1200.66,632.245 1208.5,630.5 Z"/></g>
<g><path style="opacity:0.969" fill="#fefffe" d="M 1368.5,630.5 C 1388.99,628.999 1405.49,636.333 1418,652.5C 1435.94,681.275 1438.94,711.609 1427,743.5C 1419.81,760.026 1407.97,771.859 1391.5,779C 1359.22,785.108 1336.72,772.941 1324,742.5C 1317.85,726.037 1315.85,709.037 1318,691.5C 1321.02,666.59 1333.19,647.757 1354.5,635C 1359.25,633.358 1363.92,631.858 1368.5,630.5 Z M 1369.5,663.5 C 1380.58,661.804 1389.42,665.471 1396,674.5C 1407.66,694.105 1408.32,714.105 1398,734.5C 1385.41,751.493 1371.41,752.826 1356,738.5C 1344.3,719.514 1342.96,699.847 1352,679.5C 1356.15,672.174 1361.99,666.84 1369.5,663.5 Z"/></g>
<g><path style="opacity:0.969" fill="#fefffe" d="M 2535.5,632.5 C 2551.52,630.753 2565.85,634.753 2578.5,644.5C 2579.67,658.488 2579.83,672.488 2579,686.5C 2572.64,677.467 2564.47,670.634 2554.5,666C 2539.68,661.991 2528.18,666.491 2520,679.5C 2509.77,699.063 2510.1,718.396 2521,737.5C 2528.61,748.707 2539.11,752.874 2552.5,750C 2562.89,746.938 2571.72,741.438 2579,733.5C 2579.83,746.18 2579.67,758.846 2578.5,771.5C 2555.92,788.52 2533.26,788.687 2510.5,772C 2496.05,758.262 2487.55,741.429 2485,721.5C 2481.63,695.643 2487.63,672.31 2503,651.5C 2511.87,641.654 2522.7,635.321 2535.5,632.5 Z"/></g>
<g><path style="opacity:0.97" fill="#fefffe" d="M 2639.5,632.5 C 2665.22,631.066 2684.06,641.733 2696,664.5C 2710.08,695.132 2709.41,725.465 2694,755.5C 2678.81,779.68 2657.31,788.18 2629.5,781C 2613.21,773.38 2601.71,761.214 2595,744.5C 2582.95,711.283 2586.95,680.283 2607,651.5C 2615.87,641.654 2626.7,635.321 2639.5,632.5 Z M 2641.5,665.5 C 2657.04,664.857 2667.54,671.857 2673,686.5C 2678.19,702.767 2677.52,718.767 2671,734.5C 2663,749.496 2651.16,753.996 2635.5,748C 2625.14,740.128 2619.31,729.628 2618,716.5C 2615.73,699.747 2619.89,684.914 2630.5,672C 2633.93,669.289 2637.6,667.123 2641.5,665.5 Z"/></g>
<g><path style="opacity:0.973" fill="#fefffe" d="M 940.5,635.5 C 943.448,635.223 946.281,635.556 949,636.5C 970.333,661.167 991.667,685.833 1013,710.5C 1013.5,685.502 1013.67,660.502 1013.5,635.5C 1022.17,635.5 1030.83,635.5 1039.5,635.5C 1039.5,682.5 1039.5,729.5 1039.5,776.5C 1036.48,776.665 1033.48,776.498 1030.5,776C 1009.33,751.5 988.167,727 967,702.5C 966.5,727.164 966.333,751.831 966.5,776.5C 957.833,776.5 949.167,776.5 940.5,776.5C 940.5,729.5 940.5,682.5 940.5,635.5 Z"/></g>
<g><path style="opacity:0.967" fill="#fefffe" d="M 1102.5,635.5 C 1105.12,635.232 1107.62,635.565 1110,636.5C 1128.17,682.833 1146.33,729.167 1164.5,775.5C 1154.52,776.499 1144.52,776.832 1134.5,776.5C 1132.5,769.833 1130.5,763.167 1128.5,756.5C 1113.15,756.167 1097.82,756.501 1082.5,757.5C 1080.17,763.5 1077.83,769.5 1075.5,775.5C 1065.85,776.665 1056.18,776.832 1046.5,776C 1065.66,729.347 1084.33,682.513 1102.5,635.5 Z M 1104.5,690.5 C 1105.12,690.611 1105.62,690.944 1106,691.5C 1110.31,704.758 1114.81,717.924 1119.5,731C 1109.83,731.667 1100.17,731.667 1090.5,731C 1095.67,717.669 1100.33,704.169 1104.5,690.5 Z"/></g>
<g><path style="opacity:0.972" fill="#fefffe" d="M 1274.5,635.5 C 1283.83,635.5 1293.17,635.5 1302.5,635.5C 1302.5,682.5 1302.5,729.5 1302.5,776.5C 1293.17,776.5 1283.83,776.5 1274.5,776.5C 1274.5,729.5 1274.5,682.5 1274.5,635.5 Z"/></g>
<g><path style="opacity:0.97" fill="#fefffe" d="M 1444.5,635.5 C 1449.86,634.345 1454.02,636.012 1457,640.5C 1477.33,664.167 1497.67,687.833 1518,711.5C 1518.5,686.169 1518.67,660.836 1518.5,635.5C 1527.17,635.5 1535.83,635.5 1544.5,635.5C 1544.5,682.5 1544.5,729.5 1544.5,776.5C 1541.48,776.665 1538.48,776.498 1535.5,776C 1514,751.167 1492.5,726.333 1471,701.5C 1470.5,726.498 1470.33,751.498 1470.5,776.5C 1461.83,776.5 1453.17,776.5 1444.5,776.5C 1444.5,729.5 1444.5,682.5 1444.5,635.5 Z"/></g>
<g><path style="opacity:0.965" fill="#fefffe" d="M 1607.5,635.5 C 1610.39,635.042 1612.89,635.709 1615,637.5C 1632.98,683.763 1651.14,729.929 1669.5,776C 1659.48,776.832 1649.48,776.666 1639.5,775.5C 1637.06,769.355 1634.73,763.189 1632.5,757C 1617.17,756.5 1601.84,756.333 1586.5,756.5C 1584.7,763.237 1582.7,769.904 1580.5,776.5C 1570.81,776.832 1561.14,776.498 1551.5,775.5C 1570.37,728.889 1589.04,682.222 1607.5,635.5 Z M 1609.5,690.5 C 1614.54,703.955 1619.21,717.622 1623.5,731.5C 1614.14,731.832 1604.81,731.498 1595.5,730.5C 1600.37,717.214 1605.04,703.88 1609.5,690.5 Z"/></g>
<g><path style="opacity:0.976" fill="#fefffe" d="M 1676.5,635.5 C 1685.83,635.5 1695.17,635.5 1704.5,635.5C 1704.5,672.167 1704.5,708.833 1704.5,745.5C 1719.5,745.5 1734.5,745.5 1749.5,745.5C 1749.5,755.833 1749.5,766.167 1749.5,776.5C 1725.17,776.5 1700.83,776.5 1676.5,776.5C 1676.5,729.5 1676.5,682.5 1676.5,635.5 Z"/></g>
<g><path style="opacity:0.97" fill="#fefffe" d="M 1830.5,635.5 C 1845.17,635.333 1859.84,635.5 1874.5,636C 1905.09,640.589 1923.26,658.089 1929,688.5C 1933.52,712.57 1928.85,734.57 1915,754.5C 1906.23,764.599 1895.4,771.433 1882.5,775C 1865.21,776.412 1847.88,776.912 1830.5,776.5C 1830.5,729.5 1830.5,682.5 1830.5,635.5 Z M 1858.5,666.5 C 1886.09,665.253 1900.42,678.42 1901.5,706C 1900.47,733.529 1886.13,746.696 1858.5,745.5C 1858.5,719.167 1858.5,692.833 1858.5,666.5 Z"/></g>
<g><path style="opacity:0.975" fill="#fefffe" d="M 1944.5,635.5 C 1968.17,635.5 1991.83,635.5 2015.5,635.5C 2015.5,645.5 2015.5,655.5 2015.5,665.5C 2000.83,665.5 1986.17,665.5 1971.5,665.5C 1971.5,673.5 1971.5,681.5 1971.5,689.5C 1981.17,689.5 1990.83,689.5 2000.5,689.5C 2000.5,699.5 2000.5,709.5 2000.5,719.5C 1990.83,719.5 1981.17,719.5 1971.5,719.5C 1971.5,728.5 1971.5,737.5 1971.5,746.5C 1986.5,746.5 2001.5,746.5 2016.5,746.5C 2016.5,756.5 2016.5,766.5 2016.5,776.5C 1992.5,776.5 1968.5,776.5 1944.5,776.5C 1944.5,729.5 1944.5,682.5 1944.5,635.5 Z"/></g>
<g><path style="opacity:0.964" fill="#fefffe" d="M 2107.5,637.5 C 2109.6,637.201 2111.6,637.534 2113.5,638.5C 2126.85,666.531 2140.18,694.531 2153.5,722.5C 2166.26,694.649 2178.76,666.649 2191,638.5C 2193.14,637.231 2195.31,637.231 2197.5,638.5C 2205.71,685.408 2213.37,732.408 2220.5,779.5C 2211.5,779.5 2202.5,779.5 2193.5,779.5C 2190.85,758.759 2187.68,738.093 2184,717.5C 2175,737.833 2166,758.167 2157,778.5C 2154.21,779.783 2151.37,779.783 2148.5,778.5C 2139.09,758.015 2129.42,737.681 2119.5,717.5C 2115.73,738.094 2112.4,758.761 2109.5,779.5C 2101.17,779.5 2092.83,779.5 2084.5,779.5C 2091.73,732.098 2099.4,684.765 2107.5,637.5 Z"/></g>
<g><path style="opacity:0.964" fill="#fefffe" d="M 2231.5,637.5 C 2255.5,637.5 2279.5,637.5 2303.5,637.5C 2303.5,647.5 2303.5,657.5 2303.5,667.5C 2288.83,667.5 2274.17,667.5 2259.5,667.5C 2259.5,675.5 2259.5,683.5 2259.5,691.5C 2268.5,691.5 2277.5,691.5 2286.5,691.5C 2286.5,701.5 2286.5,711.5 2286.5,721.5C 2277.5,721.5 2268.5,721.5 2259.5,721.5C 2259.5,730.5 2259.5,739.5 2259.5,748.5C 2274.17,748.5 2288.83,748.5 2303.5,748.5C 2303.5,758.833 2303.5,769.167 2303.5,779.5C 2279.5,779.5 2255.5,779.5 2231.5,779.5C 2231.5,732.167 2231.5,684.833 2231.5,637.5 Z"/></g>
<g><path style="opacity:0.963" fill="#fefffe" d="M 2320.5,637.5 C 2329.86,637.168 2339.19,637.502 2348.5,638.5C 2355.75,651.332 2363.25,663.998 2371,676.5C 2377.63,663.707 2384.47,651.041 2391.5,638.5C 2402.15,637.334 2412.82,637.168 2423.5,638C 2411.17,659.667 2398.83,681.333 2386.5,703C 2401.63,728.084 2416.63,753.251 2431.5,778.5C 2419.85,779.666 2408.18,779.833 2396.5,779C 2387.86,763.55 2378.86,748.383 2369.5,733.5C 2360.63,748.538 2351.97,763.705 2343.5,779C 2333.15,779.832 2322.82,779.666 2312.5,778.5C 2326.42,754.328 2340.09,729.995 2353.5,705.5C 2341.94,683.056 2330.94,660.389 2320.5,637.5 Z"/></g>
<g><path style="opacity:0.979" fill="#fefffe" d="M 2444.5,637.5 C 2453.83,637.5 2463.17,637.5 2472.5,637.5C 2472.5,684.833 2472.5,732.167 2472.5,779.5C 2463.17,779.5 2453.83,779.5 2444.5,779.5C 2444.5,732.167 2444.5,684.833 2444.5,637.5 Z"/></g>
<g><path style="opacity:0.849" fill="#fefffe" d="M 2796.5,737.5 C 2796.5,742.833 2796.5,748.167 2796.5,753.5C 2786.15,780.13 2767.49,788.297 2740.5,778C 2723.58,766.197 2718.41,750.364 2725,730.5C 2733.85,713.157 2748.02,705.99 2767.5,709C 2783.01,712.681 2792.68,722.181 2796.5,737.5 Z M 2752.5,714.5 C 2771.77,712.718 2784.27,721.051 2790,739.5C 2791.44,758.134 2783.27,770.301 2765.5,776C 2746.53,777.935 2734.37,769.768 2729,751.5C 2727.28,732.922 2735.11,720.589 2752.5,714.5 Z M 2752.5,730.5 C 2756.18,730.335 2759.85,730.501 2763.5,731C 2768.53,733.148 2769.7,736.648 2767,741.5C 2762.4,743.375 2757.56,744.375 2752.5,744.5C 2752.5,739.833 2752.5,735.167 2752.5,730.5 Z"/></g>
<g><path style="opacity:0.904" fill="#fefffe" d="M 2744.5,724.5 C 2751.84,724.334 2759.17,724.5 2766.5,725C 2774.59,726.994 2777.76,732.161 2776,740.5C 2774.5,743.333 2772.33,745.5 2769.5,747C 2772,748.167 2773.83,750 2775,752.5C 2775.5,756.821 2775.67,761.154 2775.5,765.5C 2773.17,765.5 2770.83,765.5 2768.5,765.5C 2770.19,753.187 2764.85,747.854 2752.5,749.5C 2752.5,754.833 2752.5,760.167 2752.5,765.5C 2749.83,765.5 2747.17,765.5 2744.5,765.5C 2744.5,751.833 2744.5,738.167 2744.5,724.5 Z M 2752.5,730.5 C 2752.5,735.167 2752.5,739.833 2752.5,744.5C 2757.56,744.375 2762.4,743.375 2767,741.5C 2769.7,736.648 2768.53,733.148 2763.5,731C 2759.85,730.501 2756.18,730.335 2752.5,730.5 Z"/></g>
</svg>
